<?xml version="1.0" standalone="no" ?>
<!DOCTYPE svg PUBLIC "-//W3C//DTD SVG 1.1//EN" "http://www.w3.org/Graphics/SVG/1.1/DTD/svg11.dtd">
<svg width="604px" height="518px" viewBox="0 0 604 518" style="background-color: #ffffff00" xmlns="http://www.w3.org/2000/svg" xmlns:xlink="http://www.w3.org/1999/xlink" version="1.1" >
<text x="0" y="0" stroke="none" fill="#000000" transform="matrix(0.0666667 0 0 0.0666667 225.006 75.8436)" font-style="normal" font-weight="normal" font-size="1281.68px" font-family="Arial" >
O</text>
<text x="0" y="0" stroke="none" fill="#000000" transform="matrix(0.0666667 0 0 0.0666667 205.981 332.18)" font-style="normal" font-weight="normal" font-size="1281.68px" font-family="Arial" >
Se</text>
<path stroke="none" fill="#000000" transform="matrix(0.0666667 0 0 0.0666667 -54.3867 -118)" d="M 4984.14,5564.53 L 4855.97,5564.53 L 4855.97,3177.99 L 4984.14,3177.99 L 4984.14,5564.53 Z " />
<path stroke="none" fill="#000000" transform="matrix(0.0666667 0 0 0.0666667 -54.3867 -118)" d="M 4522.73,5564.53 L 4394.56,5564.53 L 4394.56,3177.99 L 4522.73,3177.99 L 4522.73,5564.53 Z " />
<text x="0" y="0" stroke="none" fill="#000000" transform="matrix(0.0666667 0 0 0.0666667 3.11108 460.348)" font-style="normal" font-weight="normal" font-size="1281.68px" font-family="Arial" >
O</text>
<path stroke="none" fill="#000000" transform="matrix(0.0666667 0 0 0.0666667 -54.3867 -118)" d="M 2107.53,8079.32 L 2043.42,7968.33 L 3880.97,6906.95 L 3945.08,7017.93 L 2107.53,8079.32 Z " />
<path stroke="none" fill="#000000" transform="matrix(0.0666667 0 0 0.0666667 -54.3867 -118)" d="M 1876.82,7679.91 L 1812.72,7568.92 L 3650.27,6507.54 L 3714.38,6618.52 L 1876.82,7679.91 Z " />
<text x="0" y="0" stroke="none" fill="#000000" transform="matrix(0.0666667 0 0 0.0666667 406.248 513.422)" font-style="normal" font-weight="normal" font-size="1281.68px" font-family="Arial" >
OH</text>
<path stroke="none" fill="#000000" transform="matrix(0.0666667 0 0 0.0666667 -54.3867 -118)" d="M 7192.38,8206.95 L 6648.6,8750.72 L 5370.96,7019.93 L 5461.59,6929.3 L 7192.38,8206.95 Z " />
<text x="0" y="0" stroke="none" fill="#000000" transform="matrix(0.0666667 0 0 0.0666667 472.872 398.804)" font-style="normal" font-weight="normal" font-size="1281.68px" font-family="Arial" >
OH</text>
<path stroke="none" fill="#000000" transform="matrix(0.0666667 0 0 0.0666667 -54.3867 -118)" d="M 7843.81,6697.44 L 7644.2,7440.09 L 7525.44,7388.16 L 7715.02,6682.83 L 7843.81,6697.44 Z " />
<path stroke="none" fill="#000000" transform="matrix(0.0666667 0 0 0.0666667 -54.3867 -118)" d="M 7442.38,6651.89 L 7274.02,7278.23 L 7155.26,7226.3 L 7313.59,6637.28 L 7442.38,6651.89 Z " />
<path stroke="none" fill="#000000" transform="matrix(0.0666667 0 0 0.0666667 -54.3867 -118)" d="M 7040.94,6606.35 L 6903.85,7116.37 L 6785.09,7064.44 L 6912.15,6591.74 L 7040.94,6606.35 Z " />
<path stroke="none" fill="#000000" transform="matrix(0.0666667 0 0 0.0666667 -54.3867 -118)" d="M 6639.5,6560.8 L 6533.67,6954.51 L 6414.91,6902.59 L 6510.71,6546.19 L 6639.5,6560.8 Z " />
<path stroke="none" fill="#000000" transform="matrix(0.0666667 0 0 0.0666667 -54.3867 -118)" d="M 6238.06,6515.26 L 6163.5,6792.66 L 6044.74,6740.73 L 6109.27,6500.64 L 6238.06,6515.26 Z " />
<path stroke="none" fill="#000000" transform="matrix(0.0666667 0 0 0.0666667 -54.3867 -118)" d="M 5836.63,6469.71 L 5793.33,6630.8 L 5674.57,6578.87 L 5707.84,6455.1 L 5836.63,6469.71 Z " />
</svg>
