<?xml version="1.0" standalone="no" ?>
<!DOCTYPE svg PUBLIC "-//W3C//DTD SVG 1.1//EN" "http://www.w3.org/Graphics/SVG/1.1/DTD/svg11.dtd">
<svg width="801px" height="806px" viewBox="0 0 801 806" style="background-color: #ffffff00" xmlns="http://www.w3.org/2000/svg" xmlns:xlink="http://www.w3.org/1999/xlink" version="1.1" >
<text x="0" y="0" stroke="none" fill="#000000" transform="matrix(0.0833333 0 0 0.0833333 172.708 341.297)" font-style="normal" font-weight="normal" font-size="682.062px" font-family="Arial" >
O</text>
<text x="0" y="0" stroke="none" fill="#000000" transform="matrix(0.0833333 0 0 0.0833333 160.053 511.753)" font-style="normal" font-weight="normal" font-size="682.062px" font-family="Arial" >
Se</text>
<text x="0" y="0" stroke="none" fill="#000000" transform="matrix(0.0833333 0 0 0.0833333 293.239 632.283)" font-style="normal" font-weight="normal" font-size="682.062px" font-family="Arial" >
O</text>
<text x="0" y="0" stroke="none" fill="#000000" transform="matrix(0.0833333 0 0 0.0833333 451.04 632.283)" font-style="normal" font-weight="normal" font-size="682.062px" font-family="Arial" >
Se</text>
<text x="0" y="0" stroke="none" fill="#000000" transform="matrix(0.0833333 0 0 0.0833333 584.226 511.753)" font-style="normal" font-weight="normal" font-size="682.062px" font-family="Arial" >
O</text>
<text x="0" y="0" stroke="none" fill="#000000" transform="matrix(0.0833333 0 0 0.0833333 571.57 341.297)" font-style="normal" font-weight="normal" font-size="682.062px" font-family="Arial" >
Se</text>
<text x="0" y="0" stroke="none" fill="#000000" transform="matrix(0.0833333 0 0 0.0833333 463.695 220.766)" font-style="normal" font-weight="normal" font-size="682.062px" font-family="Arial" >
O</text>
<text x="0" y="0" stroke="none" fill="#000000" transform="matrix(0.0833333 0 0 0.0833333 280.584 220.766)" font-style="normal" font-weight="normal" font-size="682.062px" font-family="Arial" >
Se</text>
<path stroke="none" fill="#000000" transform="matrix(0.0833333 0 0 0.0833333 -32.425 -31.8333)" d="M 2760.97,5891.45 L 2692.76,5891.45 L 2692.76,4621.64 L 2760.97,4621.64 L 2760.97,5891.45 Z " />
<path stroke="none" fill="#000000" transform="matrix(0.0833333 0 0 0.0833333 -32.425 -31.8333)" d="M 3937.84,7417.28 L 3889.61,7465.5 L 3089.81,6665.7 L 3138.04,6617.48 L 3937.84,7417.28 Z " />
<path stroke="none" fill="#000000" transform="matrix(0.0833333 0 0 0.0833333 -32.425 -31.8333)" d="M 5696.16,7666.79 L 5696.16,7735 L 4543.38,7735 L 4543.38,7666.79 L 5696.16,7666.79 Z " />
<path stroke="none" fill="#000000" transform="matrix(0.0833333 0 0 0.0833333 -32.425 -31.8333)" d="M 7357.28,6514.09 L 7405.51,6562.32 L 6530.05,7437.79 L 6481.82,7389.56 L 7357.28,6514.09 Z " />
<path stroke="none" fill="#000000" transform="matrix(0.0833333 0 0 0.0833333 -32.425 -31.8333)" d="M 7630.97,4621.8 L 7699.18,4621.8 L 7699.18,5890.28 L 7630.97,5890.28 L 7630.97,4621.8 Z " />
<path stroke="none" fill="#000000" transform="matrix(0.0833333 0 0 0.0833333 -32.425 -31.8333)" d="M 6480,3072.21 L 6528.23,3023.99 L 7336.83,3832.59 L 7288.6,3880.82 L 6480,3072.21 Z " />
<path stroke="none" fill="#000000" transform="matrix(0.0833333 0 0 0.0833333 -32.425 -31.8333)" d="M 4697.52,2796.79 L 4697.52,2728.59 L 5850.03,2728.59 L 5850.03,2796.79 L 4697.52,2796.79 Z " />
<path stroke="none" fill="#000000" transform="matrix(0.0833333 0 0 0.0833333 -32.425 -31.8333)" d="M 3011.22,3972.93 L 2962.99,3924.7 L 3770.93,3116.77 L 3819.16,3165 L 3011.22,3972.93 Z " />
<text x="0" y="0" stroke="none" fill="#000000" transform="matrix(0.0833333 0 0 0.0833333 315.488 51.7682)" font-style="normal" font-weight="normal" font-size="682.062px" font-family="Arial" >
O</text>
<path stroke="none" fill="#000000" transform="matrix(0.0833333 0 0 0.0833333 -32.425 -31.8333)" d="M 4231.19,1120.95 L 4298.81,1129.86 L 4132.51,2393.07 L 4064.88,2384.17 L 4231.19,1120.95 Z " />
<path stroke="none" fill="#000000" transform="matrix(0.0833333 0 0 0.0833333 -32.425 -31.8333)" d="M 4474.54,1152.99 L 4542.17,1161.9 L 4375.86,2425.11 L 4308.24,2416.21 L 4474.54,1152.99 Z " />
<text x="0" y="0" stroke="none" fill="#000000" transform="matrix(0.0833333 0 0 0.0833333 158.007 116.999)" font-style="normal" font-weight="normal" font-size="682.062px" font-family="Arial" >
O</text>
<path stroke="none" fill="#000000" transform="matrix(0.0833333 0 0 0.0833333 -32.425 -31.8333)" d="M 2771.41,1884.71 L 2812.93,1830.6 L 3714.26,2522.22 L 3672.74,2576.33 L 2771.41,1884.71 Z " />
<path stroke="none" fill="#000000" transform="matrix(0.0833333 0 0 0.0833333 -32.425 -31.8333)" d="M 2920.83,1689.98 L 2962.35,1635.87 L 3863.68,2327.48 L 3822.16,2381.59 L 2920.83,1689.98 Z " />
<text x="0" y="0" stroke="none" fill="#000000" transform="matrix(0.0833333 0 0 0.0833333 753.223 363.545)" font-style="normal" font-weight="normal" font-size="682.062px" font-family="Arial" >
O</text>
<path stroke="none" fill="#000000" transform="matrix(0.0833333 0 0 0.0833333 -32.425 -31.8333)" d="M 9349.96,4272.69 L 9341.06,4340.32 L 8193.15,4189.19 L 8202.05,4121.57 L 9349.96,4272.69 Z " />
<path stroke="none" fill="#000000" transform="matrix(0.0833333 0 0 0.0833333 -32.425 -31.8333)" d="M 9317.92,4516.05 L 9309.02,4583.67 L 8161.11,4432.55 L 8170.01,4364.92 L 9317.92,4516.05 Z " />
<text x="0" y="0" stroke="none" fill="#000000" transform="matrix(0.0833333 0 0 0.0833333 687.993 206.065)" font-style="normal" font-weight="normal" font-size="682.062px" font-family="Arial" >
O</text>
<path stroke="none" fill="#000000" transform="matrix(0.0833333 0 0 0.0833333 -32.425 -31.8333)" d="M 8539.11,2812.37 L 8593.22,2853.89 L 7822.41,3858.43 L 7768.3,3816.91 L 8539.11,2812.37 Z " />
<path stroke="none" fill="#000000" transform="matrix(0.0833333 0 0 0.0833333 -32.425 -31.8333)" d="M 8733.84,2961.8 L 8787.95,3003.32 L 8017.15,4007.85 L 7963.03,3966.33 L 8733.84,2961.8 Z " />
<text x="0" y="0" stroke="none" fill="#000000" transform="matrix(0.0833333 0 0 0.0833333 441.446 801.281)" font-style="normal" font-weight="normal" font-size="682.062px" font-family="Arial" >
O</text>
<path stroke="none" fill="#000000" transform="matrix(0.0833333 0 0 0.0833333 -32.425 -31.8333)" d="M 6154.5,9390.14 L 6086.87,9381.24 L 6253.01,8119.34 L 6320.63,8128.24 L 6154.5,9390.14 Z " />
<path stroke="none" fill="#000000" transform="matrix(0.0833333 0 0 0.0833333 -32.425 -31.8333)" d="M 5911.14,9358.1 L 5843.52,9349.2 L 6009.65,8087.3 L 6077.27,8096.2 L 5911.14,9358.1 Z " />
<text x="0" y="0" stroke="none" fill="#000000" transform="matrix(0.0833333 0 0 0.0833333 598.927 736.05)" font-style="normal" font-weight="normal" font-size="682.062px" font-family="Arial" >
O</text>
<path stroke="none" fill="#000000" transform="matrix(0.0833333 0 0 0.0833333 -32.425 -31.8333)" d="M 7645.96,8598.38 L 7604.44,8652.5 L 6713.36,7968.75 L 6754.88,7914.64 L 7645.96,8598.38 Z " />
<path stroke="none" fill="#000000" transform="matrix(0.0833333 0 0 0.0833333 -32.425 -31.8333)" d="M 7496.53,8793.12 L 7455.01,8847.23 L 6563.94,8163.48 L 6605.46,8109.37 L 7496.53,8793.12 Z " />
<text x="0" y="0" stroke="none" fill="#000000" transform="matrix(0.0833333 0 0 0.0833333 3.71077 489.504)" font-style="normal" font-weight="normal" font-size="682.062px" font-family="Arial" >
O</text>
<path stroke="none" fill="#000000" transform="matrix(0.0833333 0 0 0.0833333 -32.425 -31.8333)" d="M 1043.42,6191.09 L 1052.32,6123.46 L 2200.5,6274.62 L 2191.6,6342.25 L 1043.42,6191.09 Z " />
<path stroke="none" fill="#000000" transform="matrix(0.0833333 0 0 0.0833333 -32.425 -31.8333)" d="M 1075.46,5947.73 L 1084.36,5880.11 L 2232.54,6031.27 L 2223.64,6098.89 L 1075.46,5947.73 Z " />
<text x="0" y="0" stroke="none" fill="#000000" transform="matrix(0.0833333 0 0 0.0833333 68.9415 646.984)" font-style="normal" font-weight="normal" font-size="682.062px" font-family="Arial" >
O</text>
<path stroke="none" fill="#000000" transform="matrix(0.0833333 0 0 0.0833333 -32.425 -31.8333)" d="M 1830.13,7680.8 L 1776.02,7639.28 L 2479.17,6722.92 L 2533.28,6764.44 L 1830.13,7680.8 Z " />
<path stroke="none" fill="#000000" transform="matrix(0.0833333 0 0 0.0833333 -32.425 -31.8333)" d="M 1635.4,7531.37 L 1581.29,7489.85 L 2284.43,6573.5 L 2338.55,6615.02 L 1635.4,7531.37 Z " />
</svg>
