<?xml version="1.0"?><svg xmlns="http://www.w3.org/2000/svg" xmlns:xlink="http://www.w3.org/1999/xlink" viewBox="5.05 9.55 318.35 174.07" preserveAspectRatio="xMidYMid" width="100%" height="100%"><clipPath id="135"><rect x="0.3" y="0.3" width="539.4" height="719.4" /></clipPath><g id="drawing"><rect x="5.05" y="9.55" width="100%" height="100%" fill="rgb(255, 255, 255)" /><g id="page" clip-path="url(#135)"><g><text xml:space="preserve" text-anchor="start" text-rendering="geometricPrecision"><tspan x="27.68" y="62.03" font-family="Arial" font-size="10" fill="rgb(0, 0, 0)">In (s)</tspan></text></g><g><text xml:space="preserve" text-anchor="start" text-rendering="geometricPrecision"><tspan x="68.81" y="60.95" font-family="Arial" font-size="10" fill="rgb(0, 0, 0)">+</tspan></text></g><g id="Solid"><path d="M97.07 59.74 L97.07 59.74 L96.92 59.48 L96.77 59.22 L109.39 51.93 L109.39 52.28 L109.39 52.63 Z" stroke="rgb(0, 0, 0)" stroke-width="0" fill-rule="evenodd" stroke-linejoin="miter" fill="rgb(0, 0, 0)" shape-rendering="geometricPrecision" /><line x1="98.22" y1="61.72" x2="109.39" y2="55.27" stroke="rgb(0, 0, 0)" stroke-width="0.6" shape-rendering="auto" /></g><g id="Solid"><path d="M109.39 52.63 L109.39 52.63 L109.39 52.28 L109.39 51.93 L121.86 59.13 L121.86 59.48 L121.86 59.83 Z" stroke="rgb(0, 0, 0)" stroke-width="0" fill-rule="evenodd" stroke-linejoin="miter" fill="rgb(0, 0, 0)" shape-rendering="geometricPrecision" /></g><g><text xml:space="preserve" text-anchor="start" text-rendering="geometricPrecision"><tspan x="131.29" y="55.85" font-family="Arial" font-size="10" fill="rgb(0, 0, 0)">X</tspan></text></g><g id="Solid"><path d="M121.86 59.83 L121.86 59.83 L121.86 59.48 L121.86 59.13 L129.86 54.52 L130.01 54.78 L130.16 55.04 Z" stroke="rgb(0, 0, 0)" stroke-width="0" fill-rule="evenodd" stroke-linejoin="miter" fill="rgb(0, 0, 0)" shape-rendering="geometricPrecision" /></g><g id="Solid"><path d="M250.65 60.26 L250.65 60.26 L250.5 60 L250.35 59.74 L262.97 52.45 L262.97 52.8 L262.97 53.15 Z" stroke="rgb(0, 0, 0)" stroke-width="0" fill-rule="evenodd" stroke-linejoin="miter" fill="rgb(0, 0, 0)" shape-rendering="geometricPrecision" /><line x1="251.8" y1="62.24" x2="262.97" y2="55.79" stroke="rgb(0, 0, 0)" stroke-width="0.6" shape-rendering="auto" /></g><g id="Solid"><path d="M262.97 53.15 L262.97 53.15 L262.97 52.8 L262.97 52.45 L275.4 59.62 L275.4 59.97 L275.4 60.32 Z" stroke="rgb(0, 0, 0)" stroke-width="0" fill-rule="evenodd" stroke-linejoin="miter" fill="rgb(0, 0, 0)" shape-rendering="geometricPrecision" /></g><g id="Solid"><path d="M275.4 60.32 L275.4 60.32 L275.4 59.97 L275.4 59.62 L285.86 53.59 L286.01 53.85 L286.16 54.11 Z" stroke="rgb(0, 0, 0)" stroke-width="0" fill-rule="evenodd" stroke-linejoin="miter" fill="rgb(0, 0, 0)" shape-rendering="geometricPrecision" /></g><g><text xml:space="preserve" text-anchor="start" text-rendering="geometricPrecision"><tspan x="286.42" y="56.37" font-family="Arial" font-size="10" fill="rgb(0, 0, 0)">In</tspan></text></g><g id="Solid"><path d="M293.48 50.13 L293.48 50.13 L293.26 49.92 L293.04 49.72 L296.69 45.76 L296.92 45.96 L297.14 46.16 Z" stroke="rgb(0, 0, 0)" stroke-width="0" fill-rule="evenodd" stroke-linejoin="miter" fill="rgb(0, 0, 0)" shape-rendering="geometricPrecision" /></g><g><text xml:space="preserve" text-anchor="start" text-rendering="geometricPrecision"><tspan x="297.25" y="45.87" font-family="Arial" font-size="10" fill="rgb(0, 0, 0)">L</tspan></text></g><g><text xml:space="preserve" text-anchor="start" text-rendering="geometricPrecision"><tspan x="299.4" y="66.22" font-family="Arial" font-size="10" fill="rgb(0, 0, 0)">X</tspan></text></g><g id="Solid"><path d="M295.14 56.96 L295.14 56.96 L295.33 56.73 L295.52 56.5 L298.46 58.95 L298.27 59.18 L298.08 59.41 Z" stroke="rgb(0, 0, 0)" stroke-width="0" fill-rule="evenodd" stroke-linejoin="miter" fill="rgb(0, 0, 0)" shape-rendering="geometricPrecision" /></g><g><text xml:space="preserve" text-anchor="start" text-rendering="geometricPrecision"><tspan x="252.75" y="81.75" font-family="Arial" font-size="10" fill="rgb(0, 0, 0)">meziprodukt</tspan></text></g><g id="Solid"><path d="M22.65 158.51 L22.65 158.51 L22.5 158.25 L22.35 157.99 L34.97 150.7 L34.97 151.05 L34.97 151.4 Z" stroke="rgb(0, 0, 0)" stroke-width="0" fill-rule="evenodd" stroke-linejoin="miter" fill="rgb(0, 0, 0)" shape-rendering="geometricPrecision" /><line x1="23.8" y1="160.49" x2="34.97" y2="154.04" stroke="rgb(0, 0, 0)" stroke-width="0.6" shape-rendering="auto" /></g><g id="Solid"><path d="M34.97 151.4 L34.97 151.4 L34.97 151.05 L34.97 150.7 L47.4 157.87 L47.4 158.22 L47.4 158.57 Z" stroke="rgb(0, 0, 0)" stroke-width="0" fill-rule="evenodd" stroke-linejoin="miter" fill="rgb(0, 0, 0)" shape-rendering="geometricPrecision" /></g><g id="Solid"><path d="M47.4 158.57 L47.4 158.57 L47.4 158.22 L47.4 157.87 L57.86 151.84 L58.01 152.1 L58.16 152.36 Z" stroke="rgb(0, 0, 0)" stroke-width="0" fill-rule="evenodd" stroke-linejoin="miter" fill="rgb(0, 0, 0)" shape-rendering="geometricPrecision" /></g><g><text xml:space="preserve" text-anchor="start" text-rendering="geometricPrecision"><tspan x="58.42" y="154.62" font-family="Arial" font-size="10" fill="rgb(0, 0, 0)">In</tspan></text></g><g><text xml:space="preserve" text-anchor="start" text-rendering="geometricPrecision"><tspan x="69.25" y="144.12" font-family="Arial" font-size="10" fill="rgb(0, 0, 0)">L</tspan></text></g><g id="Solid"><path d="M65.43 148.43 L65.43 148.43 L65.21 148.22 L64.99 148.02 L68.69 144.01 L68.92 144.21 L69.14 144.41 Z" stroke="rgb(0, 0, 0)" stroke-width="0" fill-rule="evenodd" stroke-linejoin="miter" fill="rgb(0, 0, 0)" shape-rendering="geometricPrecision" /></g><g id="Solid"><path d="M67.14 155.21 L67.14 155.21 L67.33 154.98 L67.52 154.75 L70.46 157.2 L70.27 157.43 L70.08 157.66 Z" stroke="rgb(0, 0, 0)" stroke-width="0" fill-rule="evenodd" stroke-linejoin="miter" fill="rgb(0, 0, 0)" shape-rendering="geometricPrecision" /></g><g><text xml:space="preserve" text-anchor="start" text-rendering="geometricPrecision"><tspan x="71.4" y="164.47" font-family="Arial" font-size="10" fill="rgb(0, 0, 0)">X</tspan></text></g><g><text xml:space="preserve" text-anchor="start" text-rendering="geometricPrecision"><tspan x="96" y="152.25" font-family="Arial" font-size="10" fill="rgb(0, 0, 0)">+</tspan></text></g><g id="Solid"><path d="M117.04 153.32 L117.04 153.32 L117.39 153.43 L117.74 153.54 L122.15 166.79 L121.93 167.09 L121.71 167.39 Z" stroke="rgb(0, 0, 0)" stroke-width="0" fill-rule="evenodd" stroke-linejoin="miter" fill="rgb(0, 0, 0)" shape-rendering="geometricPrecision" /></g><g id="Solid"><path d="M121.71 167.39 L121.71 167.39 L121.93 167.09 L122.15 166.79 L136.11 166.69 L136.33 166.99 L136.55 167.29 Z" stroke="rgb(0, 0, 0)" stroke-width="0" fill-rule="evenodd" stroke-linejoin="miter" fill="rgb(0, 0, 0)" shape-rendering="geometricPrecision" /></g><g id="Solid"><path d="M136.55 167.29 L136.55 167.29 L136.33 166.99 L136.11 166.69 L140.33 153.38 L140.68 153.26 L141.03 153.14 Z" stroke="rgb(0, 0, 0)" stroke-width="0" fill-rule="evenodd" stroke-linejoin="miter" fill="rgb(0, 0, 0)" shape-rendering="geometricPrecision" /></g><g id="Solid"><path d="M141.03 153.14 L141.03 153.14 L140.68 153.26 L140.33 153.38 L128.98 145.25 L128.98 144.88 L128.98 144.51 Z" stroke="rgb(0, 0, 0)" stroke-width="0" fill-rule="evenodd" stroke-linejoin="miter" fill="rgb(0, 0, 0)" shape-rendering="geometricPrecision" /></g><g id="Solid"><path d="M128.98 144.51 L128.98 144.51 L128.98 144.88 L128.98 145.25 L117.74 153.54 L117.39 153.43 L117.04 153.32 Z" stroke="rgb(0, 0, 0)" stroke-width="0" fill-rule="evenodd" stroke-linejoin="miter" fill="rgb(0, 0, 0)" shape-rendering="geometricPrecision" /></g><g id="Solid"><line x1="127.69" y1="144.89" x2="127.63" y2="135.91" stroke="rgb(0, 0, 0)" stroke-width="0.6" shape-rendering="auto" /><path d="M129.97 145.22 L129.97 145.22 L130.58 145.65 L130.51 135.89 L129.91 135.89 Z" stroke="rgb(0, 0, 0)" stroke-width="0" fill-rule="evenodd" stroke-linejoin="miter" fill="rgb(0, 0, 0)" shape-rendering="geometricPrecision" /><path d="M127.39 145.68 L127.39 145.68 L127.99 145.24 L127.93 135.91 L127.33 135.91 Z" stroke="rgb(0, 0, 0)" stroke-width="0" fill-rule="evenodd" stroke-linejoin="miter" fill="rgb(0, 0, 0)" shape-rendering="geometricPrecision" /></g><g><text xml:space="preserve" text-anchor="start" text-rendering="geometricPrecision"><tspan x="124.97" y="134.16" font-family="Arial" font-size="10" fill="rgb(0, 0, 0)">O</tspan></text></g><g id="Arrow"><line x1="194.12" y1="149.25" x2="157.5" y2="149.25" stroke="rgb(0, 0, 0)" stroke-width="0.6" shape-rendering="auto" /><path d="M201 149.25 L192 147 C193.56 148.27 193.56 150.23 192 151.5 Z" stroke="rgb(0, 0, 0)" stroke-width="0" fill-rule="evenodd" stroke-linejoin="miter" stroke-miterlimit="6.93086070671109" fill="rgb(0, 0, 0)" shape-rendering="geometricPrecision" /></g><g id="Arrow"><line x1="207.62" y1="52.5" x2="174" y2="52.5" stroke="rgb(0, 0, 0)" stroke-width="0.6" shape-rendering="auto" /><path d="M214.5 52.5 L205.5 50.25 C207.06 51.52 207.06 53.48 205.5 54.75 Z" stroke="rgb(0, 0, 0)" stroke-width="0" fill-rule="evenodd" stroke-linejoin="miter" stroke-miterlimit="6.93086070671111" fill="rgb(0, 0, 0)" shape-rendering="geometricPrecision" /></g><g id="Solid"><path d="M227.94 155.94 L227.94 155.94 L228.3 156.04 L228.66 156.14 L233.44 169.26 L233.23 169.57 L233.02 169.88 Z" stroke="rgb(0, 0, 0)" stroke-width="0" fill-rule="evenodd" stroke-linejoin="miter" fill="rgb(0, 0, 0)" shape-rendering="geometricPrecision" /></g><g id="Solid"><path d="M233.02 169.88 L233.02 169.88 L233.23 169.57 L233.44 169.26 L247.39 168.77 L247.62 169.06 L247.85 169.35 Z" stroke="rgb(0, 0, 0)" stroke-width="0" fill-rule="evenodd" stroke-linejoin="miter" fill="rgb(0, 0, 0)" shape-rendering="geometricPrecision" /></g><g id="Solid"><path d="M247.85 169.35 L247.85 169.35 L247.62 169.06 L247.39 168.77 L251.23 155.35 L251.58 155.22 L251.93 155.09 Z" stroke="rgb(0, 0, 0)" stroke-width="0" fill-rule="evenodd" stroke-linejoin="miter" fill="rgb(0, 0, 0)" shape-rendering="geometricPrecision" /></g><g id="Solid"><path d="M251.93 155.09 L251.93 155.09 L251.58 155.22 L251.23 155.35 L239.65 147.54 L239.64 147.17 L239.84 146.94 Z" stroke="rgb(0, 0, 0)" stroke-width="0" fill-rule="evenodd" stroke-linejoin="miter" fill="rgb(0, 0, 0)" shape-rendering="geometricPrecision" /></g><g id="Solid"><path d="M239.17 147.16 L239.17 147.16 L239.64 147.17 L239.65 147.54 L228.66 156.14 L228.3 156.04 L227.94 155.94 Z" stroke="rgb(0, 0, 0)" stroke-width="0" fill-rule="evenodd" stroke-linejoin="miter" fill="rgb(0, 0, 0)" shape-rendering="geometricPrecision" /></g><g id="WedgeBegin"><path d="M239.84 146.94 L239.84 146.94 L239.64 147.17 L239.17 147.16 L233.42 142.89 L234.5 141.85 L235.58 140.81 Z" stroke="rgb(0, 0, 0)" stroke-width="0" fill-rule="evenodd" stroke-linejoin="miter" fill="rgb(0, 0, 0)" shape-rendering="geometricPrecision" /></g><g><text xml:space="preserve" text-anchor="end" text-rendering="geometricPrecision"><tspan x="234.04" y="140.95" font-family="Arial" font-size="10" fill="rgb(0, 0, 0)">HO</tspan></text></g><g id="Wedged Hash Begin Bond"><path d="M239.86 147.38 L239.86 147.38 L239.42 146.96 L239.8 146.5 L240.31 146.98 Z" stroke="rgb(0, 0, 0)" stroke-width="0" fill-rule="evenodd" stroke-linejoin="miter" fill="rgb(0, 0, 0)" shape-rendering="geometricPrecision" /><path d="M242 145.48 L242 145.48 L241.23 144.75 L241.62 144.28 L242.45 145.08 Z" stroke="rgb(0, 0, 0)" stroke-width="0" fill-rule="evenodd" stroke-linejoin="miter" fill="rgb(0, 0, 0)" shape-rendering="geometricPrecision" /><path d="M244.14 143.59 L244.14 143.59 L243.05 142.53 L243.43 142.07 L244.59 143.19 Z" stroke="rgb(0, 0, 0)" stroke-width="0" fill-rule="evenodd" stroke-linejoin="miter" fill="rgb(0, 0, 0)" shape-rendering="geometricPrecision" /><path d="M246.28 141.69 L246.28 141.69 L244.86 140.32 L245.24 139.85 L246.74 141.29 Z" stroke="rgb(0, 0, 0)" stroke-width="0" fill-rule="evenodd" stroke-linejoin="miter" fill="rgb(0, 0, 0)" shape-rendering="geometricPrecision" /><path d="M248.43 139.79 L248.43 139.79 L246.67 138.1 L247.05 137.64 L248.88 139.4 Z" stroke="rgb(0, 0, 0)" stroke-width="0" fill-rule="evenodd" stroke-linejoin="miter" fill="rgb(0, 0, 0)" shape-rendering="geometricPrecision" /><path d="M250.57 137.9 L250.57 137.9 L248.48 135.89 L248.86 135.42 L251.02 137.5 Z" stroke="rgb(0, 0, 0)" stroke-width="0" fill-rule="evenodd" stroke-linejoin="miter" fill="rgb(0, 0, 0)" shape-rendering="geometricPrecision" /></g><g id="Solid"><path d="M249.95 136.76 L249.95 136.76 L249.94 136.46 L249.93 136.16 L266.77 135.87 L266.95 136.17 L267.13 136.47 Z" stroke="rgb(0, 0, 0)" stroke-width="0" fill-rule="evenodd" stroke-linejoin="miter" fill="rgb(0, 0, 0)" shape-rendering="geometricPrecision" /></g><g id="Solid"><path d="M267.13 136.47 L267.13 136.47 L266.95 136.17 L266.77 135.87 L273.66 123.48 L273.92 123.63 L274.18 123.78 Z" stroke="rgb(0, 0, 0)" stroke-width="0" fill-rule="evenodd" stroke-linejoin="miter" fill="rgb(0, 0, 0)" shape-rendering="geometricPrecision" /><line x1="265.42" y1="133.61" x2="271.66" y2="122.38" stroke="rgb(0, 0, 0)" stroke-width="0.6" shape-rendering="auto" /></g><g><text xml:space="preserve" text-anchor="start" text-rendering="geometricPrecision"><tspan x="20.25" y="27.75" font-family="Arial" font-weight="bold" font-size="10" fill="rgb(0, 0, 0)">1. krok: Vznik organoinditého meziproduktu</tspan></text></g><g><text xml:space="preserve" text-anchor="start" text-rendering="geometricPrecision"><tspan x="16.5" y="105.75" font-family="Arial" font-weight="bold" font-size="10" fill="rgb(0, 0, 0)">2. krok: Adice na karbonyl, vznik alkoholu</tspan></text></g><g id="Rectangle"><path d="M9.54 10.44 L318.9 10.44 C320.89 10.44 322.5 12.05 322.5 14.04 L322.5 179.4 C322.5 181.39 320.89 183 318.9 183 L9.54 183 C7.55 183 5.94 181.39 5.94 179.4 L5.94 14.04 C5.94 12.05 7.55 10.44 9.54 10.44 " stroke="rgb(0, 0, 0)" stroke-width="0.6" fill-rule="evenodd" stroke-linejoin="bevel" fill="none" shape-rendering="geometricPrecision" /></g></g></g></svg>