<?xml version="1.0" standalone="no" ?>
<!DOCTYPE svg PUBLIC "-//W3C//DTD SVG 1.1//EN" "http://www.w3.org/Graphics/SVG/1.1/DTD/svg11.dtd">
<svg width="409px" height="830px" viewBox="0 0 409 830" style="background-color: #ffffff00" xmlns="http://www.w3.org/2000/svg" xmlns:xlink="http://www.w3.org/1999/xlink" version="1.1" >
<text x="0" y="0" stroke="none" fill="#000000" transform="matrix(0.0833333 0 0 0.0833333 192.142 436.375)" font-style="normal" font-weight="normal" font-size="654px" font-family="Arial" >
Ti</text>
<text x="0" y="0" stroke="none" fill="#000000" transform="matrix(0.0833333 0 0 0.0833333 3.61276 512.375)" font-style="normal" font-weight="normal" font-size="654px" font-family="Arial" >
Cl</text>
<path stroke="none" fill="#000000" transform="matrix(0.0833333 0 0 0.0833333 -184.425 -9)" d="M 3103.5,6076.53 L 2939.87,5719.54 L 4487.89,5190.05 L 4515.14,5249.5 L 3103.5,6076.53 Z " />
<text x="0" y="0" stroke="none" fill="#000000" transform="matrix(0.0833333 0 0 0.0833333 17.7794 374.892)" font-style="normal" font-weight="normal" font-size="654px" font-family="Arial" >
Cl</text>
<path stroke="none" fill="#000000" transform="matrix(0.0833333 0 0 0.0833333 -184.425 -9)" d="M 3130.77,4625.69 L 3278.32,4261.76 L 3335.75,4294.18 L 3194.56,4642.42 L 3130.77,4625.69 Z " />
<path stroke="none" fill="#000000" transform="matrix(0.0833333 0 0 0.0833333 -184.425 -9)" d="M 3325.71,4676.81 L 3453.82,4360.82 L 3511.25,4393.24 L 3389.5,4693.54 L 3325.71,4676.81 Z " />
<path stroke="none" fill="#000000" transform="matrix(0.0833333 0 0 0.0833333 -184.425 -9)" d="M 3520.65,4727.94 L 3629.33,4459.89 L 3686.75,4492.3 L 3584.44,4744.67 L 3520.65,4727.94 Z " />
<path stroke="none" fill="#000000" transform="matrix(0.0833333 0 0 0.0833333 -184.425 -9)" d="M 3715.59,4779.06 L 3804.83,4558.95 L 3862.26,4591.37 L 3779.38,4795.79 L 3715.59,4779.06 Z " />
<path stroke="none" fill="#000000" transform="matrix(0.0833333 0 0 0.0833333 -184.425 -9)" d="M 3910.53,4830.19 L 3980.33,4658.01 L 4037.76,4690.43 L 3974.32,4846.91 L 3910.53,4830.19 Z " />
<path stroke="none" fill="#000000" transform="matrix(0.0833333 0 0 0.0833333 -184.425 -9)" d="M 4105.47,4881.31 L 4155.83,4757.08 L 4213.26,4789.49 L 4169.25,4898.04 L 4105.47,4881.31 Z " />
<path stroke="none" fill="#000000" transform="matrix(0.0833333 0 0 0.0833333 -184.425 -9)" d="M 4300.4,4932.43 L 4331.34,4856.14 L 4388.76,4888.56 L 4364.19,4949.16 L 4300.4,4932.43 Z " />
<text x="0" y="0" stroke="none" fill="#000000" transform="matrix(0.0833333 0 0 0.0833333 346.829 374.892)" font-style="normal" font-weight="normal" font-size="654px" font-family="Arial" >
Cl</text>
<path stroke="none" fill="#000000" transform="matrix(0.0833333 0 0 0.0833333 -184.425 -9)" d="M 6211.96,4299.17 L 6359.49,4663.11 L 6295.57,4679.51 L 6154.66,4331.91 L 6211.96,4299.17 Z " />
<path stroke="none" fill="#000000" transform="matrix(0.0833333 0 0 0.0833333 -184.425 -9)" d="M 6044.23,4395.01 L 6172.38,4711.12 L 6108.46,4727.52 L 5986.94,4427.75 L 6044.23,4395.01 Z " />
<path stroke="none" fill="#000000" transform="matrix(0.0833333 0 0 0.0833333 -184.425 -9)" d="M 5876.51,4490.85 L 5985.26,4759.13 L 5921.34,4775.53 L 5819.21,4523.59 L 5876.51,4490.85 Z " />
<path stroke="none" fill="#000000" transform="matrix(0.0833333 0 0 0.0833333 -184.425 -9)" d="M 5708.78,4586.69 L 5798.14,4807.13 L 5734.22,4823.53 L 5651.48,4619.43 L 5708.78,4586.69 Z " />
<path stroke="none" fill="#000000" transform="matrix(0.0833333 0 0 0.0833333 -184.425 -9)" d="M 5541.05,4682.53 L 5611.03,4855.14 L 5547.11,4871.54 L 5483.76,4715.27 L 5541.05,4682.53 Z " />
<path stroke="none" fill="#000000" transform="matrix(0.0833333 0 0 0.0833333 -184.425 -9)" d="M 5373.33,4778.37 L 5423.91,4903.15 L 5359.99,4919.55 L 5316.03,4811.11 L 5373.33,4778.37 Z " />
<path stroke="none" fill="#000000" transform="matrix(0.0833333 0 0 0.0833333 -184.425 -9)" d="M 5205.6,4874.21 L 5236.79,4951.16 L 5172.87,4967.56 L 5148.3,4906.95 L 5205.6,4874.21 Z " />
<text x="0" y="0" stroke="none" fill="#000000" transform="matrix(0.0833333 0 0 0.0833333 354.079 512.375)" font-style="normal" font-weight="normal" font-size="654px" font-family="Arial" >
Cl</text>
<path stroke="none" fill="#000000" transform="matrix(0.0833333 0 0 0.0833333 -184.425 -9)" d="M 6479.98,5676.99 L 6310.56,6031.26 L 5161.01,5300.1 L 5189.22,5241.1 L 6479.98,5676.99 Z " />
<text x="0" y="0" stroke="none" fill="#000000" transform="matrix(0.0833333 0 0 0.0833333 193.646 279.542)" font-style="normal" font-weight="normal" font-size="654px" font-family="Arial" >
O</text>
<path stroke="none" fill="#000000" transform="matrix(0.0833333 0 0 0.0833333 -184.425 -9)" d="M 4758.5,3600.67 L 4823.9,3600.67 L 4823.9,4746 L 4758.5,4746 L 4758.5,3600.67 Z " />
<text x="0" y="0" stroke="none" fill="#000000" transform="matrix(0.0833333 0 0 0.0833333 193.646 593.225)" font-style="normal" font-weight="normal" font-size="654px" font-family="Arial" >
O</text>
<path stroke="none" fill="#000000" transform="matrix(0.0833333 0 0 0.0833333 -184.425 -9)" d="M 4823.9,6619.87 L 4758.5,6619.87 L 4758.5,5475 L 4823.9,5475 L 4823.9,6619.87 Z " />
<path stroke="none" fill="#000000" transform="matrix(0.0833333 0 0 0.0833333 -184.425 -9)" d="M 6341.56,2038.11 L 6418.44,2063.09 L 5096.55,3023.56 L 5058.11,2970.65 L 6341.56,2038.11 Z " />
<path stroke="none" fill="#000000" transform="matrix(0.0833333 0 0 0.0833333 -184.425 -9)" d="M 5749.44,215.7 L 5796.96,150.3 L 6418.44,2063.09 L 6341.56,2038.11 L 5749.44,215.7 Z " />
<path stroke="none" fill="#000000" transform="matrix(0.0833333 0 0 0.0833333 -184.425 -9)" d="M 3833.16,215.7 L 3785.64,150.3 L 5796.96,150.3 L 5749.44,215.7 L 3833.16,215.7 Z " />
<path stroke="none" fill="#000000" transform="matrix(0.0833333 0 0 0.0833333 -184.425 -9)" d="M 3241.04,2038.11 L 3164.16,2063.09 L 3785.64,150.3 L 3833.16,215.7 L 3241.04,2038.11 Z " />
<path stroke="none" fill="#000000" transform="matrix(0.0833333 0 0 0.0833333 -184.425 -9)" d="M 4525.63,2971.6 L 4487.19,3024.5 L 3164.16,2063.09 L 3241.04,2038.11 L 4525.63,2971.6 Z " />
<path stroke="none" fill="#000000" transform="matrix(0.0833333 0 0 0.0833333 -184.425 -9)" d="M 3241.04,8135.89 L 3164.16,8110.91 L 4465.5,7165.42 L 4503.94,7218.33 L 3241.04,8135.89 Z " />
<path stroke="none" fill="#000000" transform="matrix(0.0833333 0 0 0.0833333 -184.425 -9)" d="M 3833.16,9958.3 L 3785.64,10023.7 L 3164.16,8110.91 L 3241.04,8135.89 L 3833.16,9958.3 Z " />
<path stroke="none" fill="#000000" transform="matrix(0.0833333 0 0 0.0833333 -184.425 -9)" d="M 5749.44,9958.3 L 5796.96,10023.7 L 3785.64,10023.7 L 3833.16,9958.3 L 5749.44,9958.3 Z " />
<path stroke="none" fill="#000000" transform="matrix(0.0833333 0 0 0.0833333 -184.425 -9)" d="M 6341.56,8135.89 L 6418.44,8110.91 L 5796.96,10023.7 L 5749.44,9958.3 L 6341.56,8135.89 Z " />
<path stroke="none" fill="#000000" transform="matrix(0.0833333 0 0 0.0833333 -184.425 -9)" d="M 5080.52,7219.79 L 5118.95,7166.88 L 6418.44,8110.91 L 6341.56,8135.89 L 5080.52,7219.79 Z " />
</svg>
